<?xml version="1.0" encoding="UTF-8" standalone="no"?>
<!DOCTYPE svg PUBLIC "-//W3C//DTD SVG 1.1//EN" "http://www.w3.org/Graphics/SVG/1.1/DTD/svg11.dtd">
<!-- Generated by Microsoft Visio, SVG Export ERD.svg Page-1 -->
<svg xmlns="http://www.w3.org/2000/svg" xmlns:xlink="http://www.w3.org/1999/xlink" xmlns:ev="http://www.w3.org/2001/xml-events"
		width="8.66199in" height="6.88777in" viewBox="0 0 623.663 495.919" xml:space="preserve" color-interpolation-filters="sRGB"
		class="st13">
	<style type="text/css">
	<![CDATA[
		.st1 {fill:#ffd965;stroke:#d8d8d8;stroke-linecap:round;stroke-linejoin:round;stroke-width:0.75}
		.st2 {fill:#000000;font-family:Calibri;font-size:0.833336em}
		.st3 {stroke:#d8d8d8;stroke-linecap:round;stroke-linejoin:round;stroke-width:0.75}
		.st4 {font-size:1em;text-decoration:underline}
		.st5 {fill:#92cddc;stroke:#d8d8d8;stroke-linecap:round;stroke-linejoin:round;stroke-width:0.75}
		.st6 {marker-end:url(#mrkr29-45);marker-start:url(#mrkr25-43);stroke:#d8d8d8;stroke-linecap:round;stroke-linejoin:round;stroke-width:0.75}
		.st7 {fill:#d8d8d8;fill-opacity:1;stroke:#d8d8d8;stroke-opacity:1;stroke-width:0.076923076923077}
		.st8 {fill:#d9958f;stroke:#d8d8d8;stroke-linecap:round;stroke-linejoin:round;stroke-width:0.75}
		.st9 {marker-end:url(#mrkr25-80);marker-start:url(#mrkr29-78);stroke:#d8d8d8;stroke-linecap:round;stroke-linejoin:round;stroke-width:0.75}
		.st10 {fill:#c4d6a0;stroke:#d8d8d8;stroke-linecap:round;stroke-linejoin:round;stroke-width:0.75}
		.st11 {marker-end:url(#mrkr25-80);marker-start:url(#mrkr28-127);stroke:#d8d8d8;stroke-linecap:round;stroke-linejoin:round;stroke-width:0.75}
		.st12 {fill:#ccc2d9;stroke:#d8d8d8;stroke-linecap:round;stroke-linejoin:round;stroke-width:0.75}
		.st13 {fill:none;fill-rule:evenodd;font-size:12px;overflow:visible;stroke-linecap:square;stroke-miterlimit:3}
	]]>
	</style>

	<defs id="Markers">
		<g id="lend25">
			<path d="M 1.5 -0.75 L 1.5 0.75 M 2.25 -0.75 L 2.25 0.75 " style="stroke-linecap:round;stroke-linejoin:round;fill:none"/>
		</g>
		<marker id="mrkr25-43" class="st7" orient="auto" markerUnits="strokeWidth" overflow="visible">
			<use xlink:href="#lend25" transform="scale(13) "/>
		</marker>
		<g id="lend29">
			<path
					d="M 2.25 0.75 C 1.83579 0.75 1.5 0.414214 1.5 0 1.5 -0.414214 1.83579 -0.75 2.25 -0.75 2.66421 -0.75 3 -0.414214 3 0 3 0.414214 2.66421 0.75 2.25 0.75 Z M 0 -0.75 L 1.5 0 L 0 0.75 M 1.5 0 L 0 0 "
					style="stroke-linecap:round;stroke-linejoin:round;fill:none"/>
		</g>
		<marker id="mrkr29-45" class="st7" refX="-39" orient="auto" markerUnits="strokeWidth" overflow="visible">
			<use xlink:href="#lend29" transform="scale(-13,-13) "/>
		</marker>
		<marker id="mrkr29-78" class="st7" refX="38.52" orient="auto" markerUnits="strokeWidth" overflow="visible">
			<use xlink:href="#lend29" transform="scale(13) "/>
		</marker>
		<marker id="mrkr25-80" class="st7" orient="auto" markerUnits="strokeWidth" overflow="visible">
			<use xlink:href="#lend25" transform="scale(-13,-13) "/>
		</marker>
		<g id="lend28">
			<path d="M 0 -0.75 L 1.5 0 L 0 0.75 M 2 -0.75 L 2 0.75 " style="stroke-linecap:round;stroke-linejoin:round;fill:none"/>
		</g>
		<marker id="mrkr28-127" class="st7" orient="auto" markerUnits="strokeWidth" overflow="visible">
			<use xlink:href="#lend28" transform="scale(13) "/>
		</marker>
	</defs>
	<g>
		<title>Page-1</title>
		<g id="shape2-1" transform="translate(18.375,-347.746)">
			<title>Entity</title>
			<desc>customer</desc>
			<path d="M0 495.92 L81 495.92 L81 441.92 L0 441.92 L0 495.92 Z" class="st1"/>
			<text x="21.27" y="471.92" class="st2">customer</text>		</g>
		<g id="group3-4" transform="translate(18.375,-434.344)">
			<title>Attribute</title>
			<desc>id</desc>
			<g id="shape4-5">
				<title>Sheet.4</title>
				<path d="M36 474.32 L39 528.52" class="st3"/>
			</g>
			<g id="shape3-8">
				<path d="M72 474.32 A36 21.6 -180 1 0 0 474.32 A36 21.6 -180 1 0 72 474.32 Z" class="st1"/>
				<text x="32.23" y="477.32" class="st2"><tspan class="st4">id</tspan></text>			</g>
		</g>
		<g id="group5-12" transform="translate(18.375,-268.107)">
			<title>Attribute.5</title>
			<desc>email</desc>
			<g id="shape6-13">
				<title>Sheet.6</title>
				<path d="M36 474.32 L39.07 416.28" class="st3"/>
			</g>
			<g id="shape5-16">
				<path d="M72 474.32 A36 21.6 -180 1 0 0 474.32 A36 21.6 -180 1 0 72 474.32 Z" class="st1"/>
				<text x="24.83" y="477.32" class="st2">email</text>			</g>
		</g>
		<g id="group7-19" transform="translate(91.9341,-268.107)">
			<title>Attribute.7</title>
			<desc>password</desc>
			<g id="shape8-20">
				<title>Sheet.8</title>
				<path d="M36 474.32 L-11.13 416.28" class="st3"/>
			</g>
			<g id="shape7-23">
				<path d="M72 474.32 A36 21.6 -180 1 0 0 474.32 A36 21.6 -180 1 0 72 474.32 Z" class="st1"/>
				<text x="16.49" y="477.32" class="st2">password</text>			</g>
		</g>
		<g id="group9-26" transform="translate(91.9341,-434.344)">
			<title>Attribute.9</title>
			<desc>name</desc>
			<g id="shape10-27">
				<title>Sheet.10</title>
				<path d="M36 474.32 L-10.1 528.52" class="st3"/>
			</g>
			<g id="shape9-30">
				<path d="M72 474.32 A36 21.6 -180 1 0 0 474.32 A36 21.6 -180 1 0 72 474.32 Z" class="st1"/>
				<text x="24.5" y="477.32" class="st2">name</text>			</g>
		</g>
		<g id="shape11-33" transform="translate(175.166,-347.746)">
			<title>Relationship</title>
			<desc>sellTransaction</desc>
			<path d="M40.5 495.92 L81 468.92 L40.5 441.92 L0 468.92 L40.5 495.92 Z" class="st5"/>
			<text x="10.01" y="471.92" class="st2">sellTransaction</text>		</g>
		<g id="group12-36" transform="translate(99.375,-367.659)">
			<title>Relationship Connector</title>
			<g id="shape12-37">
				<path d="M0 488.83 L46.54 488.83" class="st6"/>
			</g>
		</g>
		<g id="group17-46" transform="translate(165.493,-434.344)">
			<title>Attribute.17</title>
			<desc>id</desc>
			<g id="shape18-47">
				<title>Sheet.18</title>
				<path d="M36 474.32 L45.95 531.33" class="st3"/>
			</g>
			<g id="shape17-50">
				<path d="M72 474.32 A36 21.6 -180 1 0 0 474.32 A36 21.6 -180 1 0 72 474.32 Z" class="st5"/>
				<text x="32.23" y="477.32" class="st2"><tspan class="st4">id</tspan></text>			</g>
		</g>
		<g id="group19-54" transform="translate(239.052,-434.344)">
			<title>Attribute.19</title>
			<desc>customerId</desc>
			<g id="shape20-55">
				<title>Sheet.20</title>
				<path d="M36 474.32 L-10.11 537.37" class="st3"/>
			</g>
			<g id="shape19-58">
				<path d="M72 474.32 A36 21.6 -180 1 0 0 474.32 A36 21.6 -180 1 0 72 474.32 Z" class="st5"/>
				<text x="12.88" y="477.32" class="st2">customerId</text>			</g>
		</g>
		<g id="group25-61" transform="translate(165.493,-268.107)">
			<title>Attribute.25</title>
			<desc>sellTime</desc>
			<g id="shape26-62">
				<title>Sheet.26</title>
				<path d="M36 474.32 L46.12 413.58" class="st3"/>
			</g>
			<g id="shape25-65">
				<path d="M72 474.32 A36 21.6 -180 1 0 0 474.32 A36 21.6 -180 1 0 72 474.32 Z" class="st5"/>
				<text x="19.2" y="477.32" class="st2">sellTime</text>			</g>
		</g>
		<g id="shape27-68" transform="translate(386.17,-345.826)">
			<title>Entity.27</title>
			<desc>product</desc>
			<path d="M0 495.92 L81 495.92 L81 441.92 L0 441.92 L0 495.92 Z" class="st8"/>
			<text x="24.45" y="471.92" class="st2">product</text>		</g>
		<g id="group28-71" transform="translate(254.726,-366.699)">
			<title>Relationship Connector.28</title>
			<g id="shape28-72">
				<path d="M28.89 488.83 L29.25 488.83 L131.44 488.83" class="st9"/>
			</g>
		</g>
		<g id="group33-81" transform="translate(312.611,-434.344)">
			<title>Attribute.33</title>
			<desc>id</desc>
			<g id="shape34-82">
				<title>Sheet.34</title>
				<path d="M36 474.32 L88.7 530.44" class="st3"/>
			</g>
			<g id="shape33-85">
				<path d="M72 474.32 A36 21.6 -180 1 0 0 474.32 A36 21.6 -180 1 0 72 474.32 Z" class="st8"/>
				<text x="32.23" y="477.32" class="st2"><tspan class="st4">id</tspan></text>			</g>
		</g>
		<g id="group35-89" transform="translate(386.17,-434.344)">
			<title>Attribute.35</title>
			<desc>name</desc>
			<g id="shape36-90">
				<title>Sheet.36</title>
				<path d="M36 474.32 L39.04 530.44" class="st3"/>
			</g>
			<g id="shape35-93">
				<path d="M72 474.32 A36 21.6 -180 1 0 0 474.32 A36 21.6 -180 1 0 72 474.32 Z" class="st8"/>
				<text x="24.5" y="477.32" class="st2">name</text>			</g>
		</g>
		<g id="group37-96" transform="translate(459.729,-434.344)">
			<title>Attribute.37</title>
			<desc>description</desc>
			<g id="shape38-97">
				<title>Sheet.38</title>
				<path d="M36 474.32 L-10.63 530.44" class="st3"/>
			</g>
			<g id="shape37-100">
				<path d="M72 474.32 A36 21.6 -180 1 0 0 474.32 A36 21.6 -180 1 0 72 474.32 Z" class="st8"/>
				<text x="13.21" y="477.32" class="st2">description</text>			</g>
		</g>
		<g id="group39-103" transform="translate(533.288,-434.344)">
			<title>Attribute.39</title>
			<desc>sellPrice</desc>
			<g id="shape40-104">
				<title>Sheet.40</title>
				<path d="M36 474.32 L-66.12 533.83" class="st3"/>
			</g>
			<g id="shape39-107">
				<path d="M72 474.32 A36 21.6 -180 1 0 0 474.32 A36 21.6 -180 1 0 72 474.32 Z" class="st8"/>
				<text x="19.19" y="477.32" class="st2">sellPrice</text>			</g>
		</g>
		<g id="group41-110" transform="translate(533.288,-351.226)">
			<title>Attribute.41</title>
			<desc>stock</desc>
			<g id="shape42-111">
				<title>Sheet.42</title>
				<path d="M36 474.32 L-66.12 474.32" class="st3"/>
			</g>
			<g id="shape41-114">
				<path d="M72 474.32 A36 21.6 -180 1 0 0 474.32 A36 21.6 -180 1 0 72 474.32 Z" class="st8"/>
				<text x="25.35" y="477.32" class="st2">stock</text>			</g>
		</g>
		<g id="shape48-117" transform="translate(386.17,-96.4689)">
			<title>Relationship.48</title>
			<desc>buyTransaction</desc>
			<path d="M40.5 495.92 L81 468.92 L40.5 441.92 L0 468.92 L40.5 495.92 Z" class="st10"/>
			<text x="9.23" y="471.92" class="st2">buyTransaction</text>		</g>
		<g id="group49-120" transform="translate(419.584,-150.469)">
			<title>Relationship Connector.49</title>
			<g id="shape49-121">
				<path d="M7.09 495.92 L7.09 300.56" class="st11"/>
			</g>
		</g>
		<g id="group54-129" transform="translate(533.288,-268.107)">
			<title>Attribute.54</title>
			<desc>id</desc>
			<g id="shape55-130">
				<title>Sheet.55</title>
				<path d="M36 474.32 L-91.88 623.38" class="st3"/>
			</g>
			<g id="shape54-133">
				<path d="M72 474.32 A36 21.6 -180 1 0 0 474.32 A36 21.6 -180 1 0 72 474.32 Z" class="st10"/>
				<text x="32.23" y="477.32" class="st2"><tspan class="st4">id</tspan></text>			</g>
		</g>
		<g id="group56-137" transform="translate(533.288,-184.988)">
			<title>Attribute.56</title>
			<desc>supplierId</desc>
			<g id="shape57-138">
				<title>Sheet.57</title>
				<path d="M36 474.32 L-85.01 544.84" class="st3"/>
			</g>
			<g id="shape56-141">
				<path d="M72 474.32 A36 21.6 -180 1 0 0 474.32 A36 21.6 -180 1 0 72 474.32 Z" class="st10"/>
				<text x="15.75" y="477.32" class="st2">supplierId</text>			</g>
		</g>
		<g id="group64-144" transform="translate(533.288,-101.869)">
			<title>Attribute.64</title>
			<desc>buyTime</desc>
			<g id="shape65-145">
				<title>Sheet.65</title>
				<path d="M36 474.32 L-66.12 474.32" class="st3"/>
			</g>
			<g id="shape64-148">
				<path d="M72 474.32 A36 21.6 -180 1 0 0 474.32 A36 21.6 -180 1 0 72 474.32 Z" class="st10"/>
				<text x="18.42" y="477.32" class="st2">buyTime</text>			</g>
		</g>
		<g id="group66-151" transform="translate(533.288,-18.75)">
			<title>Attribute.66</title>
			<desc>totalBuyPrice</desc>
			<g id="shape67-152">
				<title>Sheet.67</title>
				<path d="M36 474.32 L-85.01 403.79" class="st3"/>
			</g>
			<g id="shape66-155">
				<path d="M72 474.32 A36 21.6 -180 1 0 0 474.32 A36 21.6 -180 1 0 72 474.32 Z" class="st10"/>
				<text x="8.79" y="477.32" class="st2">totalBuyPrice</text>			</g>
		</g>
		<g id="shape79-158" transform="translate(234.907,-96.4689)">
			<title>Entity.79</title>
			<desc>supplier</desc>
			<path d="M0 495.92 L81 495.92 L81 441.92 L0 441.92 L0 495.92 Z" class="st12"/>
			<text x="24.14" y="471.92" class="st2">supplier</text>		</g>
		<g id="group80-161" transform="translate(312.611,-187.688)">
			<title>Attribute.80</title>
			<desc>id</desc>
			<g id="shape81-162">
				<title>Sheet.81</title>
				<path d="M36 474.32 L-14.17 533.14" class="st3"/>
			</g>
			<g id="shape80-165">
				<path d="M72 474.32 A36 21.6 -180 1 0 0 474.32 A36 21.6 -180 1 0 72 474.32 Z" class="st12"/>
				<text x="32.23" y="477.32" class="st2"><tspan class="st4">id</tspan></text>			</g>
		</g>
		<g id="group82-169" transform="translate(239.052,-187.688)">
			<title>Attribute.82</title>
			<desc>name</desc>
			<g id="shape83-170">
				<title>Sheet.83</title>
				<path d="M36 474.32 L36.24 533.14" class="st3"/>
			</g>
			<g id="shape82-173">
				<path d="M72 474.32 A36 21.6 -180 1 0 0 474.32 A36 21.6 -180 1 0 72 474.32 Z" class="st12"/>
				<text x="24.5" y="477.32" class="st2">name</text>			</g>
		</g>
		<g id="group84-176" transform="translate(165.493,-187.688)">
			<title>Attribute.84</title>
			<desc>address</desc>
			<g id="shape85-177">
				<title>Sheet.85</title>
				<path d="M36 474.32 L86.66 533.14" class="st3"/>
			</g>
			<g id="shape84-180">
				<path d="M72 474.32 A36 21.6 -180 1 0 0 474.32 A36 21.6 -180 1 0 72 474.32 Z" class="st12"/>
				<text x="20.21" y="477.32" class="st2">address</text>			</g>
		</g>
		<g id="group86-183" transform="translate(91.9341,-187.688)">
			<title>Attribute.86</title>
			<desc>phoneNumber</desc>
			<g id="shape87-184">
				<title>Sheet.87</title>
				<path d="M36 474.32 L142.97 536.57" class="st3"/>
			</g>
			<g id="shape86-187">
				<path d="M72 474.32 A36 21.6 -180 1 0 0 474.32 A36 21.6 -180 1 0 72 474.32 Z" class="st12"/>
				<text x="6.29" y="477.32" class="st2">phoneNumber</text>			</g>
		</g>
		<g id="group88-190" transform="translate(315.907,-116.382)">
			<title>Relationship Connector.88</title>
			<g id="shape88-191">
				<path d="M0 488.83 L41.01 488.83" class="st6"/>
			</g>
		</g>
	</g>
</svg>
